<?xml version="1.0" encoding="UTF-8"?>
<svg id="Layer_1" data-name="Layer 1" xmlns="http://www.w3.org/2000/svg" viewBox="0 0 979.66 559.15">
  <defs>
    <style>
      .cls-1 {
        fill: #0c7170;
      }

      .cls-2 {
        fill: #06acb5;
      }
    </style>
  </defs>
  <path class="cls-2" d="M874.33,309.86c-10.27.05-18.36-8.71-17.53-18.95.48-5.89.84-10.97,1.07-15.24.66-11.36,1.3-26.95,1.93-46.77.63-19.82.94-33.79.94-41.91,0-2.91-.03-7-.1-12.29,8.79.2,15.76.3,20.91.3,7.2,0,15.59-.15,25.17-.44,9.58-.3,17.8-.45,24.67-.45,8.26,0,14.14.23,17.64.69,4.62.59,8.67,1.65,12.14,3.17,3.47,1.52,6.36,3.4,8.67,5.65,2.58,2.64,4.59,5.81,6.04,9.51,1.65,4.23,2.48,8.75,2.48,13.58,0,3.77-.48,7.37-1.44,10.8-.96,3.44-2.31,6.49-4.06,9.17-1.75,2.67-3.71,4.9-5.89,6.69-2.18,1.78-4.31,3.17-6.39,4.16-2.08.99-4.87,1.98-8.37,2.97,3.5.59,6.31,1.27,8.42,2.03,2.11.76,4.37,1.98,6.79,3.66,2.41,1.69,4.57,3.85,6.49,6.49,1.91,2.64,3.35,5.6,4.31,8.87.96,3.27,1.44,6.72,1.44,10.35,0,5.02-.83,9.74-2.48,14.17-1.65,4.43-3.96,8.22-6.94,11.4-2.51,2.71-5.78,5.02-9.81,6.94-4.03,1.92-8.16,3.24-12.39,3.96-3.44.53-9.7.93-18.78,1.19-9.08.27-18.71.4-28.88.4l-26.06-.1h0ZM896.98,282.81h19.04c5.03,0,8.73-.3,11.11-.89,2.91-.73,5.12-1.68,6.64-2.87,1.52-1.19,2.73-2.81,3.62-4.86.89-2.05,1.34-4.33,1.34-6.84,0-2.18-.36-4.09-1.09-5.75-.73-1.65-1.82-3.04-3.27-4.16-1.45-1.12-3.24-1.93-5.35-2.43-2.11-.5-5.42-.74-9.91-.74h-20.91l-1.22,28.54ZM899.25,227.42h14.09c4.63,0,7.92-.11,9.87-.35,1.66-.2,3.29-.53,4.88-.99,2.02-.59,3.95-1.56,5.45-3.04s2.47-3.05,3.06-4.84c.56-1.72.84-3.43.84-5.15,0-2.44-.58-4.62-1.73-6.54-1.16-1.91-3.02-3.34-5.6-4.26-2.58-.92-6.51-1.39-11.79-1.39h-17.84l-1.24,26.56Z"/>
  <path class="cls-2" d="M42.76,89.89c-9.89-36.03,2.42-60.54,10.77-66.72,6.65-4.92,15.21-6.05,23.3-4.94,3.87.53,7.85,1.21,11.94,2.05,66.02,13.7,95.11.57,96.28.02-22.74,18.21-33.3,24.93-85.24,31.67-29.71,3.84-56.08,27.31-57.04,37.91Z"/>
  <path class="cls-1" d="M223.58,309.84c-14.22,0-39.91.2-56.85.08-15.87-5.48-35.09-16.79-44.55-23.44-10.37-7.28-20.2-15.21-29.36-23.96-3.16-3.03-9.46-9.35-13.3-13.14-3.18,11.11-7.61,26.67-10.62,37.29-1.31,4.62-4.12,14.72-6.45,23.15-15.29-.02-40.45.05-55.09.05,7.34-23.11,16.25-51.26,23.4-73.79,2.86-9.02,7.7-24.69,11.26-35.95h0c-1.15-1.74-2.51-3.8-2.71-4.14-.35-.56-.7-1.13-1.04-1.7C-52.64,45.83,46.68,11.8,48.96,10.97c-.5.34-48.73,33.03-6.39,107.01.01.02,22.81,35.72,36.92,51.57,10.69,12.02,21.72,23.75,33.03,35.19,10.44,10.56,21.76,20.19,33.64,29.15.45.34.94.66,1.61.87-13.8-37.62-35.57-97.07-35.57-97.07l-14.73,39.49c-15.4-16.32-27.03-31.17-34.8-41.92,1.03-3.36,2.27-7.4,3.22-10.39,6.77-21.26,26.52-35.7,48.82-35.7,11.09,0,21.55,3.57,30.1,9.77,8.55,6.2,15.18,15.04,18.62,25.59,2.18,6.71,57.46,176.96,60.14,185.28Z"/>
  <path class="cls-2" d="M237.21,309.96c1.38-14.53,2.31-25.96,2.77-34.28.66-11.36,1.3-26.95,1.93-46.77.63-19.82.94-33.79.94-41.91,0-.03,0-.06,0-.09,0-6.67,5.45-12.06,12.11-11.97,3.32.05,6.22.07,8.7.07,7.2,0,15.59-.15,25.17-.44,9.58-.3,17.8-.45,24.67-.45,8.26,0,14.14.23,17.64.69,4.62.59,8.67,1.65,12.14,3.17,3.47,1.52,6.36,3.4,8.67,5.65,2.58,2.64,4.59,5.81,6.04,9.51,1.65,4.23,2.48,8.75,2.48,13.58,0,3.77-.48,7.37-1.44,10.8-.96,3.44-2.31,6.49-4.06,9.17-1.75,2.67-3.72,4.9-5.9,6.69-2.18,1.78-4.31,3.17-6.39,4.16s-4.87,1.98-8.37,2.97c3.5.59,6.31,1.27,8.42,2.03,2.11.76,4.38,1.98,6.79,3.66,2.41,1.69,4.57,3.85,6.49,6.49,1.92,2.64,3.35,5.6,4.31,8.87.96,3.27,1.44,6.72,1.44,10.35,0,5.02-.83,9.74-2.48,14.17-1.65,4.43-3.96,8.22-6.94,11.4-2.51,2.71-5.78,5.02-9.81,6.94-4.03,1.92-8.16,3.24-12.39,3.96-3.44.53-9.69.93-18.78,1.19-9.08.27-18.71.4-28.88.4l-26.06-.1-19.22.1ZM279.08,282.81h19.04c5.03,0,8.73-.3,11.11-.89,2.91-.73,5.12-1.68,6.64-2.87,1.52-1.19,2.73-2.81,3.62-4.86.89-2.05,1.34-4.33,1.34-6.84,0-2.18-.36-4.09-1.09-5.75-.73-1.65-1.82-3.04-3.27-4.16-1.45-1.12-3.24-1.93-5.35-2.43-2.11-.5-5.42-.74-9.91-.74h-20.91l-1.22,28.54ZM281.35,227.42h14.09c4.63,0,7.92-.11,9.87-.35,1.66-.2,3.29-.53,4.87-.99,2.02-.59,3.96-1.56,5.46-3.04,1.46-1.43,2.48-3.05,3.06-4.84.56-1.72.84-3.43.84-5.15,0-2.44-.58-4.62-1.73-6.54-1.16-1.91-3.02-3.34-5.6-4.26-2.58-.92-6.51-1.39-11.79-1.39h-17.84l-1.24,26.56Z"/>
  <path class="cls-2" d="M390.81,174.7c10.3.13,17.56.2,21.79.2h4.99c8.7,0,15.57,7.37,14.96,16.05l-1.81,25.87c-.59,7.93-1.03,15.36-1.33,22.29-.3,6.94-.44,11.73-.44,14.37,0,5.02.36,9.22,1.09,12.58.73,3.37,2.05,6.23,3.96,8.57,1.91,2.34,4.57,4.11,7.97,5.3,3.4,1.19,6.95,1.78,10.64,1.78,3.17,0,6.14-.43,8.91-1.3,2.18-.71,4.13-1.69,5.84-2.95,1.52-1.18,2.84-2.56,3.96-4.13,1.39-1.89,2.61-4.25,3.66-7.08,1.06-2.67,1.85-6.13,2.38-10.38.59-4.32,1.39-14.16,2.38-29.5.86-13.06,1.52-25.01,1.98-35.87.4-10.54.76-15.81,1.09-15.81h43.69l-4.82,70.35c-.07,1.32-.1,2.41-.1,3.27-.27,13.74-1.11,23.43-2.53,29.08-1.42,5.65-3.78,10.55-7.09,14.71-3.3,4.16-8.13,7.91-14.47,11.25-6.34,3.34-13.55,5.7-21.61,7.08-8.06,1.39-16.22,2.08-24.48,2.08-7.4,0-14.54-.53-21.41-1.59-6.34-1.06-12.06-2.59-17.15-4.61-5.09-2.02-9.52-4.38-13.28-7.09-3.44-2.51-6.08-5.07-7.93-7.68-1.85-2.61-3.3-5.73-4.36-9.36-1.19-4.09-1.78-8.49-1.78-13.18,0-1.59.07-3.98.2-7.18.13-3.2.43-7.81.9-13.82l1.29-15.85c.33-4.16.7-10.27,1.09-18.33l1.79-39.14Z"/>
  <path class="cls-2" d="M546.45,309.96c1.26-11.63,2.25-22.1,2.98-31.41.73-9.31,1.36-20.11,1.89-32.4.53-12.29.93-25.25,1.19-38.89.27-13.64.4-24.49.4-32.55,8.25.2,14.93.3,20.01.3s11.72-.15,19.32-.44c7.59-.3,14.99-.45,22.19-.45,8.45,0,15.98.33,22.59.99,4.95.46,9.46,1.42,13.52,2.87,4.06,1.45,7.48,3.22,10.25,5.3,2.77,2.08,5.09,4.41,6.93,6.98s3.28,5.6,4.31,9.07c1.02,3.47,1.53,7.18,1.53,11.15,0,4.43-.56,8.57-1.68,12.44-1.12,3.86-2.89,7.5-5.3,10.9-2.41,3.4-5.45,6.34-9.12,8.82-3.66,2.48-8.8,5-15.41,7.58l5.15,12.58c1.45,3.5,3,7.07,4.66,10.7l13.28,29.03c.59,1.26,1.65,3.73,3.17,7.43-10.89-.13-18.22-.2-21.98-.2-1.11,0-2.39,0-3.83.01-11.61.06-21.89-7.53-25.21-18.66-.03-.09-.06-.19-.08-.28-1.12-3.9-2.08-6.9-2.88-9.02-1.59-4.69-3.94-11.26-7.04-19.72l-10.22-28.04c3.57.66,7.07.99,10.5.99,4.82,0,9.2-.73,13.13-2.18,3.93-1.45,6.9-3.7,8.92-6.74,2.01-3.04,3.02-6.24,3.02-9.61,0-2.84-.76-5.33-2.28-7.48-1.52-2.15-3.91-3.75-7.18-4.81-3.27-1.06-8.31-1.59-15.11-1.59-2.31,0-4.71.05-7.18.15-2.48.1-5.37.18-8.67.25-.85,13.54-1.6,30.06-2.25,49.54-.65,19.49-1.08,38.61-1.27,57.37-11.04-.13-18.22-.2-21.53-.2-3.84,0-10.75.07-20.73.2Z"/>
  <path class="cls-2" d="M698.87,174.7c10.3.13,17.56.2,21.79.2,2.35,0,5.04-.01,8.08-.04,7.01-.06,12.6,5.86,12.11,12.85l-2.04,29.1c-.59,7.93-1.03,15.36-1.33,22.29-.3,6.94-.44,11.73-.44,14.37,0,5.02.36,9.22,1.09,12.58.73,3.37,2.05,6.23,3.96,8.57,1.91,2.34,4.57,4.11,7.97,5.3,3.4,1.19,6.95,1.78,10.64,1.78,3.17,0,6.14-.43,8.91-1.3,2.18-.71,4.13-1.69,5.84-2.95,1.52-1.18,2.84-2.56,3.96-4.13,1.39-1.89,2.61-4.25,3.66-7.08,1.06-2.67,1.85-6.13,2.38-10.38.59-4.32,1.39-14.16,2.38-29.5.86-13.06,1.52-25.01,1.98-35.87.4-10.54.76-15.81,1.09-15.81h43.69l-4.82,70.35c-.07,1.32-.1,2.41-.1,3.27-.27,13.74-1.11,23.43-2.53,29.08-1.42,5.65-3.78,10.55-7.09,14.71-3.3,4.16-8.13,7.91-14.47,11.25-6.34,3.34-13.55,5.7-21.61,7.08-8.06,1.39-16.22,2.08-24.48,2.08-7.4,0-14.54-.53-21.41-1.59-6.34-1.06-12.06-2.59-17.15-4.61-5.09-2.02-9.52-4.38-13.28-7.09-3.44-2.51-6.08-5.07-7.93-7.68-1.85-2.61-3.3-5.73-4.36-9.36-1.19-4.09-1.78-8.49-1.78-13.18,0-1.59.07-3.98.2-7.18.13-3.2.43-7.81.9-13.82l1.3-15.85c.33-4.16.7-10.27,1.09-18.33l1.79-39.14Z"/>
  <g>
    <path class="cls-1" d="M1.98,459.69l2.29-29.58,1.69-36.97,1.1-36.8c.06-1.59.09-5.81.09-12.66,6.29.11,12.21.17,17.77.17,4.14,0,9.59-.09,16.37-.25,6.77-.17,12.62-.26,17.55-.26,6.69,0,12.88.4,18.58,1.19,5.69.79,10.67,2.28,14.92,4.46,4.25,2.18,7.93,4.92,11.05,8.2,3.11,3.29,5.67,6.93,7.65,10.92,1.98,3.99,3.5,8.44,4.55,13.34,1.05,4.9,1.57,9.9,1.57,15,0,9.75-1.69,19.03-5.06,27.84-3.37,8.81-8.4,16.09-15.09,21.84-6.69,5.75-14.1,9.45-22.23,11.09-8.13,1.64-17.35,2.46-27.67,2.46l-28.9-.17c-1.82,0-7.23.06-16.23.17ZM28.05,441.59c4.65.23,9.24.34,13.77.34,5.16,0,9.93-.26,14.32-.77s8.18-1.32,11.35-2.42,6.36-3.05,9.56-5.82,5.83-5.99,7.87-9.65,3.6-7.72,4.67-12.2c1.08-4.47,1.62-9.04,1.62-13.68,0-8.5-1.44-15.48-4.34-20.95-2.89-5.47-6.7-9.41-11.43-11.82-4.73-2.41-12.03-3.61-21.89-3.61-6.4,0-13.74.11-22.01.34l-3.5,80.23Z"/>
    <path class="cls-1" d="M204.59,440.4c-.74,3.34-1.79,9.35-3.14,18.02-6.12,1.3-11.28,2.18-15.47,2.63-4.19.45-8.41.68-12.66.68-7.42,0-14.06-.74-19.93-2.21-5.86-1.47-11.01-4.17-15.43-8.11-4.42-3.93-7.68-8.76-9.78-14.48-2.1-5.72-3.14-11.72-3.14-18,0-6.96,1.22-13.71,3.65-20.25,2.44-6.54,5.85-11.89,10.24-16.05,4.39-4.16,9.39-7.1,15-8.83,5.61-1.73,11.47-2.59,17.59-2.59,5.78,0,11.28.72,16.49,2.16,5.21,1.44,9.59,3.8,13.13,7.08,3.54,3.28,6.26,7.23,8.16,11.83,1.9,4.61,2.85,9.74,2.85,15.4,0,2.66-.28,5.4-.85,8.23l-62.3.09c-.12,2.1-.17,3.77-.17,5.02,0,3.8.65,7.28,1.95,10.45s3.2,5.86,5.69,8.07c2.49,2.21,5.47,3.84,8.92,4.89,3.46,1.05,6.86,1.57,10.2,1.57,3.91,0,8.14-.42,12.71-1.28,4.56-.85,9.99-2.29,16.28-4.33ZM149.68,406.06l39.78.09c0-2.71-.09-4.71-.26-6.01s-.55-2.78-1.15-4.44-1.4-3.13-2.42-4.4-2.21-2.33-3.57-3.17c-1.36-.84-2.93-1.5-4.72-1.94-1.78-.45-3.7-.68-5.74-.68-2.38,0-4.69.37-6.93,1.1-2.24.73-4.29,1.81-6.16,3.22-1.87,1.41-3.38,2.99-4.55,4.74-1.16,1.75-2.03,3.43-2.59,5.04-.57,1.61-1.14,3.77-1.7,6.47Z"/>
    <path class="cls-1" d="M220.04,459.69c1.29-12.86,2.38-27.31,3.25-43.35.87-16.03,1.37-30.4,1.48-43.09,5.22.12,9.39.17,12.51.17,3.69,0,7.6-.06,11.74-.17l-.95,14.45c1.76-2.49,3.3-4.48,4.63-5.95,1.33-1.47,3.03-2.92,5.1-4.34,2.07-1.41,4.28-2.55,6.63-3.4,2.35-.85,4.99-1.53,7.9-2.04s5.96-.77,9.14-.77c5.04,0,9.87.64,14.49,1.91,4.62,1.28,8.35,3.3,11.18,6.08,2.83,2.78,4.7,5.81,5.61,9.1.9,3.29,1.36,6.77,1.36,10.45,0,1.53-.09,3.97-.25,7.31l-1.76,37.14c-.22,5.16-.36,10.65-.42,16.49-4.49-.11-8.32-.17-11.49-.17-4.31,0-8.65.06-13.02.17.45-4.93,1.02-13.53,1.71-25.79.68-12.27,1.02-20.38,1.02-24.35,0-4.47-.71-8.07-2.12-10.79-1.42-2.72-3.61-4.79-6.58-6.2-2.97-1.42-6.19-2.12-9.64-2.12s-6.57.65-9.51,1.95c-2.94,1.3-5.49,3.2-7.64,5.69-2.27,2.55-4.02,5.69-5.27,9.43-1.3,3.97-2.27,10.51-2.89,19.63-.57,8.1-1.03,18.95-1.37,32.55-4.37-.11-8.32-.17-11.83-.17s-7.92.06-13.02.17Z"/>
    <path class="cls-1" d="M380.74,441.93c-.68,3.12-1.76,8.9-3.23,17.34-4.76,1.08-8.5,1.76-11.22,2.04s-5.27.42-7.65.42c-4.19,0-7.95-.4-11.26-1.19-3.32-.79-6.05-2.19-8.2-4.21s-3.61-4.36-4.38-7.06c-.76-2.69-1.15-5.48-1.15-8.37,0-.74.03-1.73.09-2.98.06-1.25.28-5.27.68-12.07l1.95-35.36h-12.23c.28-3.4.54-8.87.76-16.4h12.8c.34-3.29.68-8.87,1.01-16.74l10.05-1.96c2.1-.39,6.16-1.33,12.18-2.8-.41,7.65-.64,14.82-.7,21.5h21.6c-.4,7.65-.6,13.12-.6,16.4h-21.67c-1.19,23.06-1.79,36.41-1.79,40.03s.38,6.23,1.15,8.16c.77,1.93,2,3.32,3.7,4.16s3.51,1.28,5.44,1.28c1.42,0,2.9-.11,4.46-.34,1.56-.23,4.29-.85,8.2-1.87Z"/>
    <path class="cls-1" d="M394.58,392.21c.79-4.08,1.29-6.94,1.49-8.58.2-1.64.55-4.14,1.06-7.48,7.71-1.81,14.51-3.09,20.4-3.83,5.89-.74,11.59-1.11,17.08-1.11,6.23,0,11.96.72,17.17,2.17,5.21,1.44,9.29,3.75,12.24,6.93,2.95,3.17,4.42,7.73,4.42,13.68,0,3.23-.45,11.46-1.35,24.69-.9,13.23-1.44,26.9-1.6,41.01-4.31-.11-8.28-.17-11.91-.17s-7.52.06-12.17.17c.75-6.85,1.35-14.79,1.8-23.8l1.12-21.16c-2.15,1.42-3.8,2.41-4.93,2.98-1.14.57-2.41,1.09-3.83,1.57-1.42.48-3.91,1.22-7.48,2.21-3.57.99-6.44,1.86-8.59,2.59s-4.1,1.57-5.83,2.51c-1.73.94-3.19,1.98-4.38,3.14-1.19,1.16-2.06,2.38-2.59,3.66-.54,1.27-.81,2.65-.81,4.12,0,2.38.69,4.43,2.08,6.16s3.13,2.93,5.23,3.61c2.09.68,4.56,1.02,7.39,1.02,1.81,0,3.72-.14,5.74-.43,2.01-.28,4.72-.99,8.12-2.12-1.19,3.23-2.58,8.05-4.16,14.45-4.02.68-7.22,1.11-9.6,1.28-2.38.17-4.59.25-6.63.25-7.14,0-13-.96-17.59-2.89-4.59-1.93-7.98-4.99-10.16-9.18-2.18-4.19-3.27-8.41-3.27-12.66,0-2.43.42-4.85,1.28-7.22.85-2.38,2.1-4.56,3.74-6.55,1.64-1.98,3.77-3.89,6.38-5.74,2.61-1.84,6.38-3.63,11.31-5.36s11.45-3.47,19.56-5.23c2.15-.45,4.39-1,6.72-1.66,2.32-.65,4.18-1.29,5.57-1.91,1.39-.62,2.59-1.43,3.62-2.42,1.02-.99,1.77-2.03,2.25-3.1.48-1.08.72-2.18.72-3.32,0-2.21-.72-4.08-2.17-5.61-1.45-1.53-3.32-2.59-5.61-3.19-2.3-.6-4.84-.89-7.61-.89-10.32,0-21.72,2.47-34.19,7.39Z"/>
    <path class="cls-1" d="M482.45,459.69c.84-9.57,1.87-26.79,3.09-51.63,1.21-24.85,1.96-46.31,2.24-64.38,5.9.11,10.09.17,12.59.17,3.35,0,7.43-.06,12.25-.17l-2.03,31.02-2.96,69.18-.34,15.81c-4.65-.11-8.59-.17-11.82-.17-1.08,0-5.42.06-13.02.17Z"/>
    <path class="cls-1" d="M659.79,438.44c-1.25,6.63-2.32,13.37-3.23,20.23-6.46,1.13-12.38,1.93-17.77,2.38-5.38.45-10,.68-13.85.68-8.5,0-16.62-1.19-24.35-3.57-7.73-2.38-14.7-6.13-20.91-11.26s-10.7-11.35-13.47-18.66c-2.78-7.31-4.16-15.3-4.16-23.97,0-9.4,1.67-18.1,5.02-26.09,3.34-7.99,8.14-14.73,14.41-20.23,6.26-5.49,13.67-9.59,22.23-12.28,8.56-2.69,17.48-4.04,26.77-4.04s19.21,1.05,30.09,3.15c.17,5.04.34,8.61.51,10.71l.6,9.1c-6.4-1.7-11.73-2.86-15.98-3.49-4.25-.62-8.3-.93-12.15-.93-6.06,0-11.88.92-17.47,2.76s-10.51,4.77-14.79,8.8c-4.28,4.02-7.56,8.88-9.86,14.58-2.3,5.69-3.44,11.63-3.44,17.81,0,7.37,1.42,13.97,4.25,19.8,2.83,5.84,7.38,10.57,13.64,14.19,6.26,3.63,14.01,5.44,23.25,5.44,8.56,0,18.78-1.7,30.68-5.1Z"/>
    <path class="cls-1" d="M672.02,459.69c.84-9.57,1.87-26.79,3.09-51.63,1.21-24.85,1.96-46.31,2.24-64.38,5.9.11,10.09.17,12.59.17,3.35,0,7.43-.06,12.25-.17l-2.03,31.02-2.96,69.18-.34,15.81c-4.65-.11-8.59-.17-11.82-.17-1.08,0-5.42.06-13.02.17Z"/>
    <path class="cls-1" d="M713.73,459.69c.86-8.5,1.47-15.61,1.81-21.33.57-9.07,1.08-19.52,1.51-31.36.43-11.84.73-23.09.91-33.74,5.52.12,9.66.17,12.42.17,2.53,0,6.64-.06,12.33-.17-.77,9.86-1.38,19.27-1.85,28.22-.46,8.95-.81,19.21-1.02,30.77-.22,11.56-.33,20.71-.33,27.45-5.16-.11-9.3-.17-12.42-.17-2.95,0-7.4.06-13.36.17ZM718.39,358.46c.23-5.83.34-10.31.34-13.43v-2.72c5.16.12,9.35.17,12.58.17,4.42,0,8.53-.06,12.33-.17-.17,1.42-.28,3.03-.34,4.85l-.43,11.3c-4.31-.11-8.27-.17-11.9-.17s-7.82.06-12.58.17Z"/>
    <path class="cls-1" d="M755.19,459.69c1.29-12.86,2.38-27.31,3.25-43.35.87-16.03,1.37-30.4,1.48-43.09,5.22.12,9.39.17,12.51.17,3.69,0,7.6-.06,11.74-.17l-.95,14.45c1.76-2.49,3.3-4.48,4.63-5.95,1.33-1.47,3.03-2.92,5.1-4.34,2.07-1.41,4.28-2.55,6.63-3.4,2.35-.85,4.98-1.53,7.9-2.04,2.92-.51,5.96-.77,9.14-.77,5.04,0,9.87.64,14.49,1.91,4.62,1.28,8.34,3.3,11.18,6.08,2.83,2.78,4.7,5.81,5.61,9.1.9,3.29,1.36,6.77,1.36,10.45,0,1.53-.09,3.97-.25,7.31l-1.76,37.14c-.22,5.16-.36,10.65-.42,16.49-4.48-.11-8.31-.17-11.49-.17-4.31,0-8.65.06-13.02.17.45-4.93,1.02-13.53,1.71-25.79.68-12.27,1.02-20.38,1.02-24.35,0-4.47-.71-8.07-2.12-10.79-1.41-2.72-3.61-4.79-6.58-6.2-2.97-1.42-6.19-2.12-9.64-2.12s-6.57.65-9.51,1.95c-2.95,1.3-5.49,3.2-7.64,5.69-2.27,2.55-4.02,5.69-5.27,9.43-1.3,3.97-2.27,10.51-2.89,19.63-.57,8.1-1.03,18.95-1.37,32.55-4.37-.11-8.31-.17-11.83-.17s-7.92.06-13.02.17Z"/>
    <path class="cls-1" d="M862.86,459.69c.86-8.5,1.47-15.61,1.81-21.33.57-9.07,1.08-19.52,1.51-31.36.43-11.84.73-23.09.91-33.74,5.52.12,9.66.17,12.42.17,2.53,0,6.64-.06,12.33-.17-.77,9.86-1.38,19.27-1.85,28.22-.46,8.95-.81,19.21-1.02,30.77-.22,11.56-.33,20.71-.33,27.45-5.16-.11-9.3-.17-12.42-.17-2.95,0-7.4.06-13.36.17ZM867.52,358.46c.23-5.83.34-10.31.34-13.43v-2.72c5.16.12,9.35.17,12.58.17,4.42,0,8.53-.06,12.33-.17-.17,1.42-.28,3.03-.34,4.85l-.43,11.3c-4.31-.11-8.27-.17-11.9-.17s-7.82.06-12.58.17Z"/>
    <path class="cls-1" d="M972.66,440.06c-.28,2.33-.71,4.96-1.28,7.9-.57,2.95-1.16,6.6-1.78,10.96-8.1,1.87-16.09,2.81-23.97,2.81-4.59,0-9.01-.42-13.26-1.27-4.25-.85-8.2-2.37-11.86-4.55s-6.87-5.06-9.65-8.63c-2.78-3.57-4.86-7.89-6.25-12.96-1.39-5.07-2.08-10.3-2.08-15.68,0-7.14,1.15-14,3.44-20.57,2.3-6.57,5.65-11.94,10.07-16.11,4.42-4.16,9.33-7,14.75-8.5,5.41-1.5,11.43-2.25,18.06-2.25,3.68,0,7.48.21,11.39.64,3.91.42,8.53,1.29,13.85,2.59l1.28,18.61c-8.43-2.89-15.78-4.34-22.06-4.34-3.85,0-7.48.65-10.9,1.95-3.42,1.3-6.36,3.36-8.82,6.16-2.46,2.81-4.22,6.05-5.26,9.73-1.05,3.68-1.57,7.45-1.57,11.31,0,5.38.84,10.04,2.5,13.98,1.67,3.94,4.54,6.99,8.61,9.14s8.71,3.23,13.91,3.23c2.54,0,5.64-.33,9.29-.98s7.51-1.71,11.58-3.19Z"/>
  </g>
  <g>
    <path class="cls-2" d="M99.42,545.76l.78-10.15.58-12.69.38-12.63c.02-.54.03-1.99.03-4.34,2.16.04,4.19.06,6.1.06,1.42,0,3.29-.03,5.62-.09s4.33-.09,6.02-.09c2.3,0,4.42.14,6.37.41s3.66.78,5.12,1.53c1.46.75,2.72,1.69,3.79,2.81s1.94,2.38,2.63,3.75c.68,1.37,1.2,2.9,1.56,4.58.36,1.68.54,3.4.54,5.15,0,3.35-.58,6.53-1.74,9.55-1.16,3.02-2.88,5.52-5.18,7.5-2.29,1.97-4.84,3.24-7.63,3.81-2.79.57-5.95.85-9.49.85l-9.92-.06c-.62,0-2.48.02-5.57.06ZM108.36,539.55c1.6.08,3.17.12,4.73.12,1.77,0,3.41-.09,4.92-.26,1.51-.18,2.81-.45,3.89-.83,1.09-.38,2.18-1.05,3.28-2s2-2.06,2.7-3.31c.7-1.26,1.23-2.65,1.6-4.19.37-1.53.56-3.1.56-4.7,0-2.92-.5-5.31-1.49-7.19-.99-1.88-2.3-3.23-3.92-4.05-1.62-.83-4.13-1.24-7.51-1.24-2.2,0-4.72.04-7.56.12l-1.2,27.54Z"/>
    <path class="cls-2" d="M143.93,545.76l.84-13.85.23-8.05c.04-1.65.06-3.32.06-4.99,0-.29-.02-1.21-.06-2.77,1.81.04,3.14.06,4,.06.99,0,2.3-.02,3.94-.06l-.15,4.11c.74-1.05,1.37-1.83,1.9-2.35.52-.51,1.11-.96,1.76-1.33.65-.37,1.38-.65,2.17-.85.8-.19,1.62-.29,2.45-.29.78,0,1.58.1,2.39.29,0,1.81.09,4.1.26,6.88-1.15-.31-2.19-.47-3.12-.47-1.13,0-2.12.17-2.99.51-.87.34-1.65.86-2.33,1.55s-1.26,1.54-1.71,2.55c-.37.82-.64,1.88-.82,3.18-.15,1.01-.28,2.74-.39,5.19-.1,2.45-.16,4.86-.16,7.23,0,.91.03,2.06.09,3.44-1.48-.04-2.83-.06-4.06-.06s-2.65.02-4.32.06Z"/>
    <path class="cls-2" d="M167.32,545.76c.08-1.4.18-4.01.32-7.85l4.43.06c.39,0,1.66-.02,3.82-.06-.1,1.42-.18,2.85-.23,4.29l-.18,3.56-3.82-.06c-.16,0-1.61.02-4.35.06Z"/>
    <path class="cls-2" d="M182.4,545.76l.76-6.59,1.93-23.16.67-10.06c2.78.04,4.81.06,6.09.06,1.03,0,2.9-.02,5.62-.06.31,1.57.55,2.69.7,3.35.16.66.46,1.72.91,3.18s1.02,3.23,1.73,5.31c1.03,3.15,1.96,6.26,2.78,9.33l2.22,8.34,3.9-10.71,5.68-13.91c.2-.47.39-1.01.6-1.62s.55-1.71,1.03-3.28c2.31.04,4.38.06,6.19.06,1.2,0,3.13-.02,5.78-.06-.27,5.6-.48,11.79-.61,18.57-.13,6.78-.2,11.84-.2,15.18,0,1.62.02,3.64.06,6.07-1.93-.04-3.24-.06-3.94-.06-1.01,0-2.36.02-4.03.06.12-1.98.19-3.62.23-4.9l.49-17.35c.06-2.45.09-4.86.09-7.24l-.03-2.36-10.72,28.38-1.25,3.47c-1.89-.04-3.19-.06-3.9-.06-.88,0-2.25.02-4.13.06l-5.02-17.97c-.18-.64-.58-1.98-1.23-4.03l-1.81-5.95c-.18-.56-.31-1.02-.39-1.38s-.28-1.16-.57-2.41l-.38,3.73c-.1,1.19-.24,3.17-.44,5.95l-1.14,18.09c-.04.89-.07,2.21-.09,3.97l-3.76-.06c-.64,0-1.91.02-3.82.06Z"/>
    <path class="cls-2" d="M251.5,515.39c2.24,0,4.38.33,6.43,1.01,2.05.67,3.79,1.66,5.22,2.98,1.43,1.31,2.5,2.92,3.22,4.81.72,1.89,1.08,3.89,1.08,5.99,0,2.22-.38,4.36-1.14,6.42-.76,2.06-1.86,3.85-3.3,5.35s-3.23,2.63-5.38,3.38c-2.15.75-4.44,1.12-6.87,1.12-2.26,0-4.4-.33-6.43-1.01s-3.77-1.68-5.21-3.02c-1.44-1.34-2.53-2.98-3.28-4.9-.75-1.93-1.12-3.94-1.12-6.04s.34-4.18,1.02-6.13,1.74-3.68,3.19-5.19c1.45-1.52,3.3-2.69,5.56-3.53,2.25-.84,4.59-1.26,7-1.26ZM251.5,521.4c-1.68,0-3.19.42-4.52,1.24-1.33.83-2.32,2.06-2.96,3.69-.65,1.63-.97,3.41-.97,5.34,0,1.69.27,3.2.8,4.52s1.41,2.39,2.62,3.21,2.65,1.23,4.32,1.23,3.2-.42,4.49-1.27c1.29-.85,2.26-2.09,2.9-3.73.65-1.64.97-3.46.97-5.44,0-1.62-.25-3.08-.75-4.4-.51-1.32-1.35-2.38-2.54-3.18-1.19-.8-2.64-1.2-4.35-1.2Z"/>
    <path class="cls-2" d="M272.45,545.76l.69-9.48.7-13.56.41-16.77c1.71.04,3.14.06,4.26.06,1.48,0,2.89-.02,4.23-.06l-.53,6.94c-.12,1.71-.27,4.46-.47,8.26.62-.93,1.14-1.63,1.56-2.1.42-.47.88-.9,1.4-1.3.51-.4,1.05-.73,1.59-1.01.54-.27,1.18-.51,1.91-.73.73-.21,1.54-.38,2.44-.49.89-.12,1.81-.18,2.74-.18,1.62,0,3.17.18,4.65.55s2.77.99,3.85,1.87,1.82,1.9,2.22,3.08.6,2.41.6,3.69c0,.84-.05,2.14-.15,3.91l-.71,12.75c-.06,1.32-.09,2.85-.09,4.58-1.57-.04-2.96-.06-4.17-.06-1.3,0-2.79.02-4.46.06.27-2.29.53-5.43.79-9.39.26-3.97.39-6.79.39-8.46,0-1.54-.25-2.74-.74-3.6-.5-.87-1.22-1.51-2.18-1.92-.96-.42-2.01-.63-3.16-.63-1.48,0-2.78.26-3.9.79-1.09.51-2,1.26-2.74,2.28-.6.84-1.11,2.03-1.51,3.59-.43,1.63-.74,4.16-.93,7.58-.1,1.65-.21,4.91-.33,9.77-1.54-.04-2.86-.06-3.97-.06s-2.52.02-4.41.06Z"/>
    <path class="cls-2" d="M346.36,545.76c.27-3.31.56-8.25.86-14.82.3-6.57.45-11.52.45-14.85,1.65.04,2.99.06,4.02.06,1.19,0,2.47-.02,3.85-.06l-.23,4.7c.62-.91,1.19-1.66,1.71-2.23.51-.57,1.18-1.11,2-1.59.82-.49,1.77-.87,2.87-1.15,1.1-.28,2.23-.42,3.4-.42.87,0,1.72.08,2.54.25.81.17,1.56.4,2.23.7.67.3,1.25.65,1.72,1.04.48.39.88.82,1.21,1.3.33.48.69,1.18,1.08,2.12.43-.68.82-1.25,1.18-1.71s.84-.93,1.44-1.41,1.27-.9,2.01-1.23,1.57-.59,2.49-.77,1.88-.28,2.87-.28c1.69,0,3.29.28,4.78.83s2.67,1.43,3.53,2.63c.85,1.2,1.28,2.68,1.28,4.45,0,.93-.07,2.3-.2,4.11-.13,1.81-.3,4.76-.49,8.85-.19,4.09-.3,7.26-.32,9.49-1.42-.04-2.68-.06-3.77-.06-1.29,0-2.79.02-4.53.06.18-2.51.34-5.13.5-7.88l.35-6.68c.1-1.69.15-3.12.15-4.29,0-1.39-.22-2.44-.66-3.15-.44-.71-.99-1.22-1.66-1.53-.67-.3-1.43-.45-2.26-.45-.88,0-1.67.17-2.38.5s-1.37.87-1.98,1.61c-.61.74-1.08,1.61-1.42,2.6-.33.99-.57,2.37-.72,4.15-.15,1.78-.28,4.12-.37,7.01l-.2,8.11c-1.62-.04-2.96-.06-4.03-.06s-2.5.02-4.29.06c.14-1.5.33-4.56.58-9.19.25-4.63.38-7.75.38-9.36,0-.86-.07-1.58-.21-2.17-.13-.59-.41-1.16-.83-1.69-.42-.54-.91-.93-1.47-1.18-.56-.25-1.21-.38-1.95-.38-1.36,0-2.56.45-3.59,1.34-1.03.9-1.78,2.09-2.26,3.59-.48,1.5-.82,4.41-1.03,8.74-.21,4.33-.32,7.76-.32,10.31-1.79-.04-3.13-.06-4.04-.06-1.03,0-2.45.02-4.28.06Z"/>
    <path class="cls-2" d="M399.74,545.76c.27-3.31.56-8.25.86-14.82.3-6.57.45-11.52.45-14.85,1.65.04,2.99.06,4.02.06,1.19,0,2.47-.02,3.85-.06l-.23,4.7c.62-.91,1.19-1.66,1.71-2.23.51-.57,1.18-1.11,2-1.59.82-.49,1.77-.87,2.87-1.15,1.1-.28,2.23-.42,3.4-.42.87,0,1.72.08,2.54.25.81.17,1.56.4,2.23.7.67.3,1.25.65,1.72,1.04.48.39.88.82,1.21,1.3.33.48.69,1.18,1.08,2.12.43-.68.82-1.25,1.18-1.71s.84-.93,1.44-1.41,1.27-.9,2.01-1.23,1.57-.59,2.49-.77,1.88-.28,2.87-.28c1.69,0,3.29.28,4.78.83s2.67,1.43,3.53,2.63c.85,1.2,1.28,2.68,1.28,4.45,0,.93-.07,2.3-.2,4.11-.13,1.81-.3,4.76-.49,8.85-.19,4.09-.3,7.26-.32,9.49-1.42-.04-2.68-.06-3.77-.06-1.29,0-2.79.02-4.53.06.18-2.51.34-5.13.5-7.88l.35-6.68c.1-1.69.15-3.12.15-4.29,0-1.39-.22-2.44-.66-3.15-.44-.71-.99-1.22-1.66-1.53-.67-.3-1.43-.45-2.26-.45-.88,0-1.67.17-2.38.5s-1.37.87-1.98,1.61c-.61.74-1.08,1.61-1.42,2.6-.33.99-.57,2.37-.72,4.15-.15,1.78-.28,4.12-.37,7.01l-.2,8.11c-1.62-.04-2.96-.06-4.03-.06s-2.5.02-4.29.06c.14-1.5.33-4.56.58-9.19s.38-7.75.38-9.36c0-.86-.07-1.58-.21-2.17-.13-.59-.41-1.16-.83-1.69-.42-.54-.91-.93-1.47-1.18-.56-.25-1.21-.38-1.95-.38-1.36,0-2.56.45-3.59,1.34-1.03.9-1.78,2.09-2.26,3.59-.48,1.5-.82,4.41-1.03,8.74-.21,4.33-.32,7.76-.32,10.31-1.79-.04-3.13-.06-4.04-.06-1.03,0-2.45.02-4.28.06Z"/>
    <path class="cls-2" d="M455.31,522.6c.27-1.4.44-2.38.51-2.95.07-.57.19-1.42.36-2.57,2.64-.62,4.98-1.06,7-1.31,2.02-.25,3.98-.38,5.86-.38,2.14,0,4.1.25,5.89.74,1.79.5,3.19,1.29,4.2,2.38s1.52,2.65,1.52,4.7c0,1.11-.15,3.93-.46,8.47s-.49,9.23-.55,14.07c-1.48-.04-2.84-.06-4.09-.06s-2.58.02-4.17.06c.26-2.35.46-5.08.62-8.17l.39-7.26c-.74.49-1.3.83-1.69,1.02-.39.2-.83.38-1.32.54-.49.17-1.34.42-2.57.76-1.23.34-2.21.64-2.95.89-.74.25-1.41.54-2,.86s-1.1.68-1.5,1.08c-.41.4-.7.82-.89,1.26-.18.44-.28.91-.28,1.41,0,.82.24,1.52.72,2.12.48.59,1.08,1.01,1.8,1.24.72.23,1.56.35,2.54.35.62,0,1.28-.05,1.97-.15s1.62-.34,2.78-.73c-.41,1.11-.88,2.76-1.43,4.96-1.38.23-2.48.38-3.3.44-.82.06-1.58.09-2.27.09-2.45,0-4.46-.33-6.04-.99-1.58-.66-2.74-1.71-3.49-3.15-.75-1.44-1.12-2.89-1.12-4.35,0-.84.15-1.66.44-2.48s.72-1.57,1.29-2.25c.56-.68,1.29-1.34,2.19-1.97s2.19-1.24,3.88-1.84c1.69-.59,3.93-1.19,6.71-1.79.74-.15,1.51-.35,2.3-.57.8-.22,1.44-.44,1.91-.66.48-.21.89-.49,1.24-.83.35-.34.61-.7.77-1.07.17-.37.25-.75.25-1.14,0-.76-.25-1.4-.75-1.92-.5-.53-1.14-.89-1.93-1.09-.79-.21-1.66-.31-2.61-.31-3.54,0-7.45.84-11.73,2.54Z"/>
    <path class="cls-2" d="M314.26,522.6c.27-1.4.44-2.38.51-2.95.07-.57.19-1.42.36-2.57,2.64-.62,4.98-1.06,7-1.31,2.02-.25,3.98-.38,5.86-.38,2.14,0,4.1.25,5.89.74,1.79.5,3.19,1.29,4.2,2.38s1.52,2.65,1.52,4.7c0,1.11-.15,3.93-.46,8.47-.31,4.54-.49,9.23-.55,14.07-1.48-.04-2.84-.06-4.09-.06s-2.58.02-4.17.06c.26-2.35.46-5.08.62-8.17l.39-7.26c-.74.49-1.3.83-1.69,1.02-.39.2-.83.38-1.32.54-.49.17-1.34.42-2.57.76-1.23.34-2.21.64-2.95.89-.74.25-1.41.54-2,.86s-1.1.68-1.5,1.08c-.41.4-.7.82-.89,1.26-.18.44-.28.91-.28,1.41,0,.82.24,1.52.72,2.12.48.59,1.08,1.01,1.8,1.24.72.23,1.56.35,2.54.35.62,0,1.28-.05,1.97-.15s1.62-.34,2.78-.73c-.41,1.11-.88,2.76-1.43,4.96-1.38.23-2.48.38-3.3.44-.82.06-1.58.09-2.27.09-2.45,0-4.46-.33-6.04-.99-1.58-.66-2.74-1.71-3.49-3.15-.75-1.44-1.12-2.89-1.12-4.35,0-.84.15-1.66.44-2.48s.72-1.57,1.29-2.25c.56-.68,1.29-1.34,2.19-1.97s2.19-1.24,3.88-1.84c1.69-.59,3.93-1.19,6.71-1.79.74-.15,1.51-.35,2.3-.57.8-.22,1.44-.44,1.91-.66.48-.21.89-.49,1.24-.83.35-.34.61-.7.77-1.07.17-.37.25-.75.25-1.14,0-.76-.25-1.4-.75-1.92-.5-.53-1.14-.89-1.93-1.09-.79-.21-1.66-.31-2.61-.31-3.54,0-7.45.84-11.73,2.54Z"/>
    <path class="cls-2" d="M517.09,545.76c-1.62-.04-2.87-.06-3.76-.06-.97,0-2.32.02-4.03.06l.26-5.08c-.86,1.11-1.59,1.97-2.2,2.57-.61.6-1.37,1.16-2.27,1.68-.9.51-1.88.9-2.93,1.15s-2.14.38-3.26.38c-1.87,0-3.62-.34-5.25-1.02-1.63-.68-3.02-1.64-4.17-2.87-1.15-1.24-1.99-2.7-2.54-4.4-.54-1.7-.82-3.48-.82-5.33,0-2.55.49-5.03,1.46-7.45s2.3-4.38,3.99-5.88c1.69-1.5,3.6-2.56,5.74-3.18,2.14-.62,4.43-.93,6.88-.93,1.77,0,3.77.17,6,.5.15-2.53.22-5.18.22-7.96v-1.98c1.83.04,3.23.06,4.2.06,1.27,0,2.69-.02,4.26-.06-.43,4.94-.83,11.66-1.21,20.17-.38,8.51-.57,15.06-.57,19.65ZM509.88,521.43c-1.46-.39-2.86-.58-4.2-.58-1.54,0-3,.21-4.4.64-1.4.43-2.64,1.16-3.72,2.19-1.08,1.03-1.91,2.35-2.49,3.97-.58,1.62-.88,3.17-.88,4.67s.27,2.87.8,4.11c.54,1.25,1.37,2.23,2.49,2.95,1.13.72,2.4,1.08,3.82,1.08,1.07,0,2.04-.19,2.92-.57.87-.38,1.67-.96,2.39-1.75s1.33-1.8,1.82-3.05c.5-1.25.85-2.9,1.07-4.96.14-1.52.27-4.42.38-8.69Z"/>
    <path class="cls-2" d="M548.24,545.76l.64-8.52.64-12.69.41-12.48h-2.04l-1.89.03-1.81.03-6.73.2c.16-2.8.24-4.93.26-6.39,5.6.04,11.46.06,17.58.06l10.47-.03,5.6-.03c-.2,2.77-.29,4.9-.29,6.39-3.52-.17-6.89-.26-10.12-.26h-2.24l-.35,5.33-.84,20.5-.06,3.44c-.02,1.42-.03,2.89-.03,4.43l-4.44-.06c-.49,0-2.07.02-4.76.06Z"/>
    <path class="cls-2" d="M575.9,522.6c.27-1.4.44-2.38.51-2.95.07-.57.19-1.42.36-2.57,2.64-.62,4.98-1.06,7-1.31,2.02-.25,3.98-.38,5.86-.38,2.14,0,4.1.25,5.89.74,1.79.5,3.19,1.29,4.2,2.38s1.52,2.65,1.52,4.7c0,1.11-.15,3.93-.46,8.47s-.49,9.23-.55,14.07c-1.48-.04-2.84-.06-4.09-.06s-2.58.02-4.17.06c.26-2.35.46-5.08.62-8.17l.39-7.26c-.74.49-1.3.83-1.69,1.02-.39.2-.83.38-1.32.54-.49.17-1.34.42-2.57.76-1.23.34-2.21.64-2.95.89-.74.25-1.41.54-2,.86s-1.1.68-1.5,1.08c-.41.4-.7.82-.89,1.26-.18.44-.28.91-.28,1.41,0,.82.24,1.52.72,2.12.48.59,1.08,1.01,1.8,1.24.72.23,1.56.35,2.54.35.62,0,1.28-.05,1.97-.15s1.62-.34,2.78-.73c-.41,1.11-.88,2.76-1.43,4.96-1.38.23-2.48.38-3.3.44-.82.06-1.58.09-2.27.09-2.45,0-4.46-.33-6.04-.99-1.58-.66-2.74-1.71-3.49-3.15-.75-1.44-1.12-2.89-1.12-4.35,0-.84.15-1.66.44-2.48s.72-1.57,1.29-2.25c.56-.68,1.29-1.34,2.19-1.97s2.19-1.24,3.88-1.84c1.69-.59,3.93-1.19,6.71-1.79.74-.15,1.51-.35,2.3-.57.8-.22,1.44-.44,1.91-.66.48-.21.89-.49,1.24-.83.35-.34.61-.7.77-1.07.17-.37.25-.75.25-1.14,0-.76-.25-1.4-.75-1.92-.5-.53-1.14-.89-1.93-1.09-.79-.21-1.66-.31-2.61-.31-3.54,0-7.45.84-11.73,2.54Z"/>
    <path class="cls-2" d="M607.49,545.76l.84-13.85.23-8.05c.04-1.65.06-3.32.06-4.99,0-.29-.02-1.21-.06-2.77,1.81.04,3.14.06,4,.06.99,0,2.3-.02,3.94-.06l-.15,4.11c.74-1.05,1.37-1.83,1.9-2.35.52-.51,1.11-.96,1.77-1.33.65-.37,1.38-.65,2.17-.85.8-.19,1.61-.29,2.45-.29.78,0,1.57.1,2.39.29,0,1.81.09,4.1.26,6.88-1.15-.31-2.19-.47-3.12-.47-1.13,0-2.12.17-2.99.51-.87.34-1.64.86-2.33,1.55-.69.69-1.26,1.54-1.71,2.55-.37.82-.64,1.88-.82,3.18-.15,1.01-.28,2.74-.39,5.19-.1,2.45-.16,4.86-.16,7.23,0,.91.03,2.06.09,3.44-1.48-.04-2.83-.06-4.06-.06s-2.65.02-4.32.06Z"/>
    <path class="cls-2" d="M630.7,545.76c.3-2.92.51-5.36.62-7.32.2-3.11.37-6.7.52-10.76.15-4.07.25-7.93.31-11.58,1.89.04,3.31.06,4.26.06.87,0,2.28-.02,4.23-.06-.26,3.38-.47,6.61-.63,9.69s-.28,6.59-.35,10.56c-.07,3.97-.11,7.11-.11,9.42-1.77-.04-3.19-.06-4.26-.06-1.01,0-2.54.02-4.58.06ZM632.3,511.02c.08-2,.12-3.54.12-4.61v-.93c1.77.04,3.21.06,4.32.06,1.52,0,2.93-.02,4.23-.06-.06.49-.1,1.04-.12,1.66l-.15,3.88c-1.48-.04-2.84-.06-4.08-.06s-2.68.02-4.32.06Z"/>
    <path class="cls-2" d="M667.66,559.15l.49-7.99c.1-1.21.18-2.78.26-4.73l.29-5.51c-.87,1.09-1.61,1.92-2.22,2.49-.6.57-1.33,1.09-2.19,1.55s-1.8.82-2.83,1.09-2.11.41-3.24.41c-1.77,0-3.43-.33-4.99-.99-1.56-.66-2.9-1.62-4.04-2.87-1.14-1.25-1.99-2.74-2.55-4.46-.57-1.72-.85-3.5-.85-5.35,0-2.64.52-5.19,1.56-7.63,1.04-2.44,2.46-4.39,4.27-5.83,1.81-1.45,3.94-2.46,6.39-3.05s5.1-.87,7.96-.87c1.46,0,3.09.07,4.89.22,1.8.15,4.16.46,7.1.95-.93,10.05-1.54,24.25-1.83,42.59-1.46-.04-2.85-.06-4.18-.06-1.07,0-2.51.02-4.32.06ZM669.2,521.96c-1.5-.37-2.9-.56-4.2-.56-2.29,0-4.29.46-5.98,1.39s-2.97,2.29-3.83,4.11c-.87,1.82-1.3,3.82-1.3,6,0,1.42.25,2.71.74,3.88.5,1.17,1.28,2.1,2.35,2.8,1.07.7,2.27,1.05,3.62,1.05,1.13,0,2.2-.26,3.22-.77s1.91-1.27,2.67-2.26,1.32-2.13,1.69-3.41c.25-.82.46-2.04.61-3.66.16-1.62.29-4.48.41-8.56Z"/>
    <path class="cls-2" d="M693.86,545.76c2.02-3.58,4.4-8,7.12-13.27l7.68-14.73c2.39-4.55,4.38-8.49,5.95-11.81,2.53.04,4.32.06,5.37.06,1.85,0,3.65-.02,5.42-.06l4.17,11.93,9.07,24.68,1.26,3.21-4.37-.06c-1.01,0-2.71.02-5.1.06-.47-1.73-1.2-4.06-2.21-7s-1.86-5.32-2.56-7.15h-15.35c-2.27,4.63-4.49,9.34-6.65,14.15l-4.76-.06c-.9,0-2.58.02-5.05.06ZM712.9,525.55h11.18l-4.59-13.5-2.36,4.91-4.23,8.59Z"/>
    <path class="cls-2" d="M743.62,545.76c.35-3.69.74-10.12,1.16-19.27.42-9.15.64-16,.66-20.55,1.73.04,3.22.06,4.49.06s2.61-.02,4.05-.06c-.33,2.74-.59,6.2-.78,10.38,1.9-.37,3.42-.62,4.55-.75,1.13-.13,2.24-.19,3.35-.19,3.05,0,5.62.48,7.71,1.44,2.09.96,3.77,2.56,5.03,4.78s1.9,4.93,1.9,8.1c0,2.21-.32,4.37-.95,6.46s-1.57,3.95-2.83,5.57c-1.25,1.62-2.77,2.81-4.56,3.57-1.79.76-3.73,1.14-5.83,1.14-1.01,0-1.95-.09-2.81-.28s-1.66-.45-2.39-.8c-.73-.35-1.38-.76-1.95-1.23-.57-.47-1.05-.93-1.43-1.4s-.82-1.12-1.33-1.95l-.13,4.96c-1.6-.04-2.85-.06-3.77-.06-.7,0-2.08.02-4.15.06ZM752.65,522.28l-.24,4.99c-.06,1.07-.09,2.11-.09,3.12,0,2.41.25,4.31.74,5.7s1.33,2.46,2.52,3.22c1.18.76,2.51,1.14,3.98,1.14,1.61,0,3.01-.43,4.19-1.3,1.18-.87,2.09-2.13,2.72-3.8s.94-3.43.94-5.28c0-2.66-.71-4.8-2.12-6.42-1.41-1.62-3.5-2.42-6.25-2.42-.89,0-1.82.07-2.79.22-.97.15-2.17.42-3.6.83Z"/>
    <path class="cls-2" d="M810.86,545.76c-1.71-.04-3.03-.06-3.94-.06-1.15,0-2.45.02-3.91.06l.05-4.84c-.54.82-1.02,1.47-1.43,1.97s-.94.98-1.6,1.46c-.66.48-1.38.86-2.16,1.14s-1.67.51-2.67.7-2.06.28-3.19.28c-2.18,0-4.07-.32-5.69-.95-1.61-.63-2.89-1.59-3.83-2.87-.94-1.28-1.41-3.12-1.41-5.51v-.61l.47-7.53.44-9.92c.02-.8.03-1.79.03-2.98,1.84.04,3.29.06,4.34.06,1.11,0,2.45-.02,4.02-.06l-.97,13.3c-.06,1.03-.1,1.9-.13,2.61-.03.71-.04,1.22-.04,1.53,0,1.4.21,2.56.63,3.49.42.92,1.15,1.63,2.18,2.11,1.04.49,2.15.73,3.34.73s2.19-.21,3.2-.64c.91-.39,1.7-.93,2.35-1.63s1.2-1.64,1.65-2.83c.33-.86.58-2.04.76-3.56.14-1.07.26-2.91.38-5.51.16-3.15.27-6.35.33-9.6,1.93.04,3.4.06,4.41.06,1.15,0,2.44-.02,3.88-.06-.23,2.78-.48,6.26-.73,10.43s-.43,7.61-.52,10.33c-.1,2.71-.17,5.68-.23,8.91Z"/>
    <path class="cls-2" d="M818.06,545.76l.84-13.85.23-8.05c.04-1.65.06-3.32.06-4.99,0-.29-.02-1.21-.06-2.77,1.81.04,3.14.06,4,.06.99,0,2.3-.02,3.94-.06l-.15,4.11c.74-1.05,1.37-1.83,1.9-2.35.52-.51,1.11-.96,1.77-1.33.65-.37,1.38-.65,2.17-.85.8-.19,1.61-.29,2.45-.29.78,0,1.57.1,2.39.29,0,1.81.09,4.1.26,6.88-1.15-.31-2.19-.47-3.12-.47-1.13,0-2.12.17-2.99.51-.87.34-1.64.86-2.33,1.55-.69.69-1.26,1.54-1.71,2.55-.37.82-.64,1.88-.82,3.18-.15,1.01-.28,2.74-.39,5.19-.1,2.45-.16,4.86-.16,7.23,0,.91.03,2.06.09,3.44-1.48-.04-2.83-.06-4.06-.06s-2.65.02-4.32.06Z"/>
    <path class="cls-2" d="M871.39,545.76c-1.71-.04-3.03-.06-3.94-.06-1.15,0-2.45.02-3.91.06l.05-4.84c-.54.82-1.02,1.47-1.43,1.97s-.94.98-1.6,1.46c-.66.48-1.38.86-2.16,1.14s-1.67.51-2.67.7-2.06.28-3.19.28c-2.18,0-4.07-.32-5.69-.95-1.61-.63-2.89-1.59-3.83-2.87-.94-1.28-1.41-3.12-1.41-5.51v-.61l.47-7.53.44-9.92c.02-.8.03-1.79.03-2.98,1.84.04,3.29.06,4.34.06,1.11,0,2.45-.02,4.02-.06l-.97,13.3c-.06,1.03-.1,1.9-.13,2.61-.03.71-.04,1.22-.04,1.53,0,1.4.21,2.56.63,3.49.42.92,1.15,1.63,2.18,2.11,1.04.49,2.15.73,3.34.73s2.19-.21,3.2-.64c.91-.39,1.7-.93,2.35-1.63s1.2-1.64,1.65-2.83c.33-.86.58-2.04.76-3.56.14-1.07.26-2.91.38-5.51.16-3.15.27-6.35.33-9.6,1.93.04,3.4.06,4.41.06,1.15,0,2.44-.02,3.88-.06-.23,2.78-.48,6.26-.73,10.43s-.43,7.61-.52,10.33c-.1,2.71-.17,5.68-.23,8.91Z"/>
    <path class="cls-2" d="M878.64,545.76c.35-3.69.74-10.12,1.16-19.27.42-9.15.64-16,.66-20.55,1.73.04,3.22.06,4.49.06s2.61-.02,4.05-.06c-.33,2.74-.59,6.2-.78,10.38,1.9-.37,3.42-.62,4.55-.75,1.13-.13,2.24-.19,3.35-.19,3.05,0,5.62.48,7.71,1.44,2.09.96,3.77,2.56,5.03,4.78s1.9,4.93,1.9,8.1c0,2.21-.32,4.37-.95,6.46s-1.57,3.95-2.83,5.57c-1.25,1.62-2.77,2.81-4.56,3.57-1.79.76-3.73,1.14-5.83,1.14-1.01,0-1.95-.09-2.81-.28s-1.66-.45-2.39-.8c-.73-.35-1.38-.76-1.95-1.23-.57-.47-1.05-.93-1.43-1.4s-.82-1.12-1.33-1.95l-.13,4.96c-1.6-.04-2.85-.06-3.77-.06-.7,0-2.08.02-4.15.06ZM887.68,522.28l-.24,4.99c-.06,1.07-.09,2.11-.09,3.12,0,2.41.25,4.31.74,5.7s1.33,2.46,2.52,3.22c1.18.76,2.51,1.14,3.98,1.14,1.61,0,3.01-.43,4.19-1.3,1.18-.87,2.09-2.13,2.72-3.8s.94-3.43.94-5.28c0-2.66-.71-4.8-2.12-6.42-1.41-1.62-3.5-2.42-6.25-2.42-.89,0-1.82.07-2.79.22-.97.15-2.17.42-3.6.83Z"/>
  </g>
  <path class="cls-2" d="M283.44,167.05c1.76-.05,3.54-.1,5.38-.15,9.58-.3,17.8-.45,24.67-.45,1.01,0,1.98,0,2.92.01,8.71-34.77,13.78-73.76,10.31-113.98-6.37-73.83-80.05-57.56-133.16-25.17-36.42,22.22-50.46,32.68-93.97,32.24,0,0,19.1,29.15,88.13,8.17,54.93-16.69,109.31-34.04,95.71,99.32Z"/>
</svg>